<svg id="fe80fb2b-bcaf-407e-919b-306adc32f78b" xmlns="http://www.w3.org/2000/svg" viewBox="0 0 1211.57 711.86"><defs><style>.cls-1{fill:#fff;}.cls-1,.cls-10,.cls-3{stroke:#3f3d56;}.cls-1,.cls-10,.cls-12,.cls-3{stroke-miterlimit:10;}.cls-2{fill:#f2f2f2;}.cls-10,.cls-12,.cls-3{fill:none;}.cls-11,.cls-13,.cls-4,.cls-5{fill:#27ab83;}.cls-4{opacity:0.3;}.cls-4,.cls-8{isolation:isolate;}.cls-6{fill:#2f2e41;}.cls-7{fill:#a0616a;}.cls-8{opacity:0.1;}.cls-9{fill:#3f3d56;}.cls-10,.cls-11{opacity:0.3;}.cls-12{stroke:#535461;stroke-width:2px;}.cls-12,.cls-13{opacity:0.06;}</style></defs><title>registerLogin</title><rect class="cls-1" x="235.44" y="66.37" width="737" height="499" rx="19.4" ry="19.4"/><rect class="cls-2" x="257.94" y="97.87" width="737" height="499" rx="19.4" ry="19.4"/><line class="cls-3" x1="235.44" y1="114.21" x2="972.44" y2="114.21"/><rect class="cls-4" x="675.94" y="226.37" width="201" height="31" rx="7.09" ry="7.09"/><rect class="cls-4" x="637.44" y="312.37" width="278" height="25" rx="7.09" ry="7.09"/><rect class="cls-4" x="637.44" y="380.37" width="278" height="25" rx="7.09" ry="7.09"/><rect class="cls-4" x="637.44" y="448.37" width="278" height="25" rx="7.09" ry="7.09"/><rect class="cls-3" x="685.94" y="216.37" width="201" height="31" rx="7.09" ry="7.09"/><rect class="cls-3" x="647.44" y="302.37" width="278" height="25" rx="7.09" ry="7.09"/><rect class="cls-3" x="647.44" y="370.37" width="278" height="25" rx="7.09" ry="7.09"/><rect class="cls-3" x="647.44" y="438.37" width="278" height="25" rx="7.09" ry="7.09"/><circle class="cls-4" cx="291.44" cy="96.37" r="15"/><circle class="cls-4" cx="333.44" cy="96.37" r="15"/><circle class="cls-4" cx="375.44" cy="96.37" r="15"/><circle class="cls-3" cx="297.44" cy="90.37" r="15"/><circle class="cls-3" cx="339.44" cy="90.37" r="15"/><circle class="cls-3" cx="381.44" cy="90.37" r="15"/><path class="cls-5" d="M468.6,574.25c-2.51-11.57-3.17-27.37-2.33-38.36,0,0-12.7-55.78-22.69-61h0c-.16.2-5,6.56-5.62,26.23-.62,20-7.7,33.09-7.7,33.09s2.29,24.91,1,40Z" transform="translate(-0.31 -29.89)"/><path class="cls-5" d="M561,219.25H330.52A23.77,23.77,0,0,0,306.75,243h0V550.48a23.77,23.77,0,0,0,23.77,23.77h80.86c-2.7-11.2-6.06-28.69-2.66-40.85h0c.16-.57.33-1.13.51-1.67a63.48,63.48,0,0,0,2.3-24.36,50.64,50.64,0,0,0,0-21.23c-2.5-11.65-4.25-23.1-4.25-23.1s-1.38-15.41-.17-24.85c0-.21.05-.4.08-.6l-.66-.16s3.54-16,4.79-26.22c.29-2.41.68-5.46,1.1-8.72a20.79,20.79,0,0,1-3.39-.86c-11.24-3.95-14.78-39.76-14.78-39.76V350.53s-3.75-17.38,9.37-25.08c12.62-7.42,17.67-9.45,18-9.59l.29-.21a11,11,0,0,0,3.29-4.23,8.07,8.07,0,0,0,0-.85c-.21-4.07-3-7.77-5.73-11l-6.87-8.26a8,8,0,0,1-1.77-2.87,6.41,6.41,0,0,1-.19-1.8c0-.23,0-.45,0-.67,0-2.06.09-4.11.16-6.16.07-1.79.52-4.05,2.27-4.42.92-.19,2.12.14,2.61-.66a1.55,1.55,0,0,0,.11-1.06.19.19,0,0,1,0,.08s0-.06,0-.1a22.27,22.27,0,0,1-.65-4.38,6,6,0,0,1,.28-2c1-3,4.52-4.2,7.61-4.76s6.57-1,8.51-3.52a28.27,28.27,0,0,1,1.69-2.37,6.69,6.69,0,0,1,3.17-1.6,17.51,17.51,0,0,1,11.5,1c1.5.69,3,1.61,4.64,1.5s3.17-1.31,4.85-1.6c2.72-.47,5.32,1.57,6.66,4a9.88,9.88,0,0,1,1.23,5,6.94,6.94,0,0,1-1.76,4.74c-1.17,1.25-2.92,2.1-3.41,3.73-.19.67-.15,1.39-.32,2.06a2.34,2.34,0,0,1-.09.24l.1.12a21.23,21.23,0,0,1-10.33,33c0,.21,0,.43,0,.64a9.19,9.19,0,0,0,2.84,7.06l18.55,7.61S482,322.84,486,339.51a28.61,28.61,0,0,1,.69,8.45c-.14,2.52.2,6.94,3.06,12.66,4.58,9.16,3.54,30.19-5.83,32.27-8.87,2-12.32,1.14-12.66,1.05l0,.37c.15,3.94,1.55,38,6.65,42.08,1.41,1.14,1.14,1.91,0,2.43h0s0,.22,0,.61c.16,2.49.94,12,4.36,17.36,3.95,6.25,3.54,42.26,3.54,42.26l2.7,21.23s-1.66,13.11,0,15.4c.95,1.3,2.09,21.41,2.91,38.57H561a23.77,23.77,0,0,0,23.77-23.77V243A23.77,23.77,0,0,0,561,219.25Z" transform="translate(-0.31 -29.89)"/><rect class="cls-3" x="282.44" y="162.37" width="278" height="355" rx="23.77" ry="23.77"/><path class="cls-6" d="M96.07,321.63s-9.32-2.76-11.32.24,2.73,24.75,2.73,24.75L108,347.87l-7.17-18.11Z" transform="translate(-0.31 -29.89)"/><path class="cls-7" d="M24.19,500.22s18.7,41,4.3,39.75-20-39.75-20-39.75Z" transform="translate(-0.31 -29.89)"/><path class="cls-7" d="M146.46,495.94s-8.2,44.35,5.46,39.62,9.76-43.41,9.76-43.41Z" transform="translate(-0.31 -29.89)"/><path class="cls-7" d="M92.1,311.34S91.88,332,99.83,333s-4.51,12-4.51,12l-14.18,2.79-20.42-1.5-9-11.61s15.9-7.52,9-30.94Z" transform="translate(-0.31 -29.89)"/><path class="cls-8" d="M92.1,311.34S91.88,332,99.83,333s-4.51,12-4.51,12l-14.18,2.79-20.42-1.5-9-11.61s15.9-7.52,9-30.94Z" transform="translate(-0.31 -29.89)"/><path class="cls-6" d="M128.63,485.82s10.09,21.71,2.14,89.82c0,0,2.37,24.07.43,28.58S113.37,670,113.37,670,93,674.49,90.16,661c0,0,2.8-19.34,2.58-22.35s4.51-35.88,4.51-35.88l-9.67-63.61-7.3,57.38s0,16.54-2.37,20.2,0,77.14,0,77.14,6.66,11.17-3.43,11.39-19.13-.22-20-7.31-1.29-14.18-3.44-18.48-4.94-53.5-4.29-70.69S32.57,503.23,37.3,494,128.63,485.82,128.63,485.82Z" transform="translate(-0.31 -29.89)"/><circle class="cls-7" cx="80.83" cy="263.4" r="25.79"/><path class="cls-2" d="M55.35,335.19S71,346.8,93.81,337.56c0,0,7.53-3.66,6.88-9.24s15.69,44.91,15.69,44.91l16.54,87.88L132.06,497s-7.3-3.66-30.08,4.51S42,492.27,42,492.27l1.29-92.18,1.29-53.72L48,334.55S49.76,331.32,55.35,335.19Z" transform="translate(-0.31 -29.89)"/><path class="cls-6" d="M92.81,320.77s3.8-.62,7.45,5.18,12.25,9.46,12.25,9.46,20.84,1.29,23.85,12.46,10.53,26.43,14.18,54.58,11,73.06,12,76.71-1.51,14.83,1.5,18.27-21.27,3.44-21.27,3.44-2.15-17.62-3.66-17.62-1.07,11.81.43,20.41-11,0-11,0-9.67-39.32-18.91-74.78-14.62-55-12.9-63,6.45-30.73,3-32.88S92.81,320.77,92.81,320.77Z" transform="translate(-0.31 -29.89)"/><path class="cls-6" d="M61.82,320.75S56.21,323.8,42,333.9s-23.85,17.84-23.85,17.84-5.59,4.3-9,29.87S-2,473.36,1,481.74,5.07,495.06,4,500s22.57,4.72,23,3.65-.65-20.63.43-21.06,6.87,11.6,7.95,21.7S48.9,522.35,51.7,522.35s17.19-58.23,17.4-98-4.72-73.28-8.38-78S61.82,320.75,61.82,320.75Z" transform="translate(-0.31 -29.89)"/><path class="cls-9" d="M99.62,671.91s1.72-4.73,7.73-3.22,10.1-3.87,10.1-3.87,3.22-.43,1.08,3.65-3.87,6.88-3.87,6.88,12.89,29.44,4.51,36.53-18,2.79-18,2.79-9.45-6.66-9-24.28c0,0-.43-5.59-5.59-14.61s-9-22.78-2.79-25.36,7.83-2.67,7.83-2.67-2.92,13.34,4.62,18Z" transform="translate(-0.31 -29.89)"/><path class="cls-9" d="M59.65,705.22s-5.16-9.67,3.44-10.75,17.83-1.72,17.4,2.8S79,708.66,79,708.66l1.5,4.94s.43,12.25,1.94,13.75,9.67,14.4-7.74,14.4-22.56-1.94-21.06-6,1.94-24.28,1.94-24.28Z" transform="translate(-0.31 -29.89)"/><path class="cls-6" d="M73,272.66s12,3.22,18.27,4.51,5.58-2.36,5.58-2.36,8.17,1.07,7.74.22,3.44-5.38-1.08-10.53-3.22-9-3.22-9H96.39L95.32,254h-6s-4.51-1.72-16.33,0S45,256.12,43.75,263.21s-8,15.9-5.59,20S54.06,304,55.35,311.13s7.31,8.66,7.09,4.22-6.23-19.91-1.07-20.56S75.33,281,73,272.66Z" transform="translate(-0.31 -29.89)"/><path class="cls-10" d="M1163.44,40.59c-4.5-7.46-13.81-11.31-24-9.93-15.23,2.25-27.54,15.75-32.62,29.12s-4.87,27.08-6.86,40.67c-2.69,18.25-9.77,37.05-23.34,52.46s-34.26,26.93-54.53,27.42c-18.81.45-34.64-8.18-49.45-16.54" transform="translate(-0.31 -29.89)"/><ellipse class="cls-11" cx="1168.08" cy="52.39" rx="10.34" ry="17.5" transform="translate(104.74 509.46) rotate(-27.18)"/><ellipse class="cls-11" cx="1113.84" cy="95.98" rx="10.34" ry="17.5" transform="translate(78.85 489.5) rotate(-27.18)"/><ellipse class="cls-11" cx="1089.48" cy="72.51" rx="10.34" ry="17.5" transform="translate(86.87 475.78) rotate(-27.18)"/><ellipse class="cls-11" cx="1061.44" cy="143.12" rx="10.34" ry="17.5" transform="translate(51.53 470.76) rotate(-27.18)"/><ellipse class="cls-11" cx="1077.43" cy="174.26" rx="10.34" ry="17.5" transform="translate(39.07 481.51) rotate(-27.18)"/><path class="cls-12" d="M971.55,501.44s58.4-29.43,108.06-24.9a132,132,0,0,0,62.85-9.74A213.84,213.84,0,0,0,1169.58,453" transform="translate(-0.31 -29.89)"/><path class="cls-13" d="M1200.93,455.64c-7.59,1.94-32.2-2.69-32.2-2.69s19.43-15.89,27-17.82c7.63-1.76,14.79,1.45,16,7.17C1212.86,447.78,1208.14,453.62,1200.93,455.64Z" transform="translate(-0.31 -29.89)"/><path class="cls-13" d="M1163.25,483.33c-7.15-1.44-22.63-16.18-22.63-16.18s26-6.31,33.16-4.85,10.29,7.59,7.19,13.36C1178,481.21,1170.21,484.57,1163.25,483.33Z" transform="translate(-0.31 -29.89)"/><path class="cls-13" d="M1091.28,500.94c-4.71-4.19-7.27-24.08-7.27-24.08s24.73,4.39,29.43,8.58,3.86,11-2.16,15.32-14.83,4.58-19.66.48Z" transform="translate(-0.31 -29.89)"/><path class="cls-13" d="M1034.65,505.07c-5.68-3.4-12.58-22.2-12.58-22.2s25.93.95,31.59,4.31c5.93,3.15,6.73,9.84,1.78,14.93s-13.77,6.66-19.7,3.51a11.27,11.27,0,0,1-1-.61Z" transform="translate(-0.31 -29.89)"/><path class="cls-13" d="M1133.65,446c-4.24,5.4-4.89,25.74-4.89,25.74s24-11.08,28.24-16.51c4.41-5.35,2.85-11.87-3.49-14.56s-15.06-.54-19.47,4.8c-.13.17-.27.34-.39.51Z" transform="translate(-0.31 -29.89)"/><path class="cls-13" d="M1067.39,451.48c-2.12,5.93,5.17,24.62,5.17,24.62s19.59-15.72,21.72-21.65c2-5.95-2.49-11.34-10-12C1077.07,441.73,1069.6,445.73,1067.39,451.48Z" transform="translate(-0.31 -29.89)"/><path class="cls-13" d="M1002.69,463.64c-3.34,5.7-.39,25.51-.39,25.51s22.29-13.27,25.65-18.94c3-5.79-.32-11.73-7.44-13.26-6.62-1.43-14.29,1.47-17.72,6.69Z" transform="translate(-0.31 -29.89)"/><path class="cls-13" d="M1200.93,455.64c-7.59,1.94-32.2-2.69-32.2-2.69s19.43-15.89,27-17.82c7.63-1.76,14.79,1.45,16,7.17C1212.86,447.78,1208.14,453.62,1200.93,455.64Z" transform="translate(-0.31 -29.89)"/><path class="cls-13" d="M1163.25,483.33c-7.15-1.44-22.63-16.18-22.63-16.18s26-6.31,33.16-4.85,10.29,7.59,7.19,13.36C1178,481.21,1170.21,484.57,1163.25,483.33Z" transform="translate(-0.31 -29.89)"/><path class="cls-13" d="M1091.28,500.94c-4.71-4.19-7.27-24.08-7.27-24.08s24.73,4.39,29.43,8.58,3.86,11-2.16,15.32-14.83,4.58-19.66.48Z" transform="translate(-0.31 -29.89)"/><path class="cls-13" d="M1034.65,505.07c-5.68-3.4-12.58-22.2-12.58-22.2s25.93.95,31.59,4.31c5.93,3.15,6.73,9.84,1.78,14.93s-13.77,6.66-19.7,3.51a11.27,11.27,0,0,1-1-.61Z" transform="translate(-0.31 -29.89)"/><path class="cls-13" d="M1133.65,446c-4.24,5.4-4.89,25.74-4.89,25.74s24-11.08,28.24-16.51c4.41-5.35,2.85-11.87-3.49-14.56s-15.06-.54-19.47,4.8c-.13.17-.27.34-.39.51Z" transform="translate(-0.31 -29.89)"/><path class="cls-13" d="M1067.39,451.48c-2.12,5.93,5.17,24.62,5.17,24.62s19.59-15.72,21.72-21.65c2-5.95-2.49-11.34-10-12C1077.07,441.73,1069.6,445.73,1067.39,451.48Z" transform="translate(-0.31 -29.89)"/><path class="cls-13" d="M1002.69,463.64c-3.34,5.7-.39,25.51-.39,25.51s22.29-13.27,25.65-18.94c3-5.79-.32-11.73-7.44-13.26-6.62-1.43-14.29,1.47-17.72,6.69Z" transform="translate(-0.31 -29.89)"/><rect class="cls-3" x="235.44" y="66.37" width="737" height="499" rx="19.4" ry="19.4"/></svg>